<?xml version="1.0" standalone="no"?><!DOCTYPE svg PUBLIC "-//W3C//DTD SVG 1.1//EN" "http://www.w3.org/Graphics/SVG/1.1/DTD/svg11.dtd"><svg t="1620910903899" class="icon" viewBox="0 0 1024 1024" version="1.1" xmlns="http://www.w3.org/2000/svg" p-id="1936" width="128" height="128" xmlns:xlink="http://www.w3.org/1999/xlink"><defs><style type="text/css"></style></defs><path d="M106.66496 588.8C61.9008 588.8 25.6 553.2672 25.6 509.44 25.6 465.6128 61.89568 430.08 106.66496 430.08c44.7744 0 81.07008 35.5328 81.07008 79.36 0 43.8272-36.3008 79.36-81.07008 79.36zM512 588.8c-44.7744 0-81.06496-35.5328-81.06496-79.36 0-43.8272 36.29056-79.36 81.06496-79.36 44.7744 0 81.06496 35.5328 81.06496 79.36 0 43.8272-36.29056 79.36-81.06496 79.36z m405.33504 0c-44.7744 0-81.07008-35.5328-81.07008-79.36 0-43.8272 36.3008-79.36 81.07008-79.36S998.4 465.6128 998.4 509.44c0 43.8272-36.29568 79.36-81.06496 79.36z" fill="#2c2c2c" p-id="1937"></path></svg>